<?xml version="1.0" encoding="UTF-8"?>
<svg id="Layer_1" data-name="Layer 1" xmlns="http://www.w3.org/2000/svg" viewBox="0 0 646 646">
  <defs>
    <style>
      .cls-1 {
        fill: #fff;
        fill-rule: evenodd;
        stroke-width: 0px;
      }

      .cls-2 {
        fill: none;
        stroke: #fff;
        stroke-miterlimit: 10;
        stroke-width: 50px;
      }
    </style>
  </defs>
  <path class="cls-1" d="M297.39,458.77l-24.98-78.22h-87.64l-23.75,78.22h-52.01l88.46-276.04h64.3l89.69,276.04h-54.06ZM214.25,274.47l-21.3,67.99h70.85l-21.71-67.99c-4.31-13.59-8.08-28.52-11.53-42.19-.81-3.22-1.61-6.37-2.39-9.41h-.82c-1.4,5.47-2.81,11.33-4.24,17.33-2.76,11.5-5.63,23.51-8.86,34.28Z"/>
  <path class="cls-1" d="M537,351.87c0,9.42-.82,16.79-1.64,21.3h-133.51c1.23,36.04,29.49,51.6,61.43,51.6,23.34,0,40.14-3.28,55.29-9.01l7.37,34.81c-17.2,6.96-40.96,12.7-69.62,12.7-64.71,0-102.8-40.14-102.8-101.16,0-55.29,33.58-107.3,97.47-107.3s86.01,53.24,86.01,97.06ZM448.13,289.21c-31.13,0-44.23,28.26-46.28,48.74h87.64c.41-18.43-7.78-48.74-41.36-48.74Z"/>
  <rect class="cls-2" x="25" y="25" width="596" height="596"/>
</svg>